<?xml version="1.0" encoding="utf-8"?>
<!-- Generator: Adobe Illustrator 24.0.0, SVG Export Plug-In . SVG Version: 6.00 Build 0)  -->
<svg version="1.1" id="Layer_1" xmlns="http://www.w3.org/2000/svg" xmlns:xlink="http://www.w3.org/1999/xlink" x="0px" y="0px"
	 viewBox="0 0 172 40" style="enable-background:new 0 0 172 40;" xml:space="preserve">
<style type="text/css">
	.st0{fill:#2C2939;}
</style>
<g transform="translate(-689 -946)">
	<g transform="translate(680.523 959.592)">
		<path class="st0" d="M60.3,15.8V-2.3h7c2.2,0,3.9,0.5,5.1,1.6c1.3,1.2,1.9,2.8,1.8,4.5c0.1,1.7-0.6,3.3-1.8,4.5
			c-1.2,1-2.9,1.6-5.1,1.6h-3.6v6L60.3,15.8z M63.7,6.9h3.4c1.5,0,2.5-0.3,3-0.8c0.6-0.6,0.9-1.5,0.8-2.3c0.1-0.9-0.2-1.7-0.8-2.3
			c-0.5-0.5-1.6-0.8-3-0.8h-3.4L63.7,6.9z"/>
		<path class="st0" d="M75,11.4c0-0.3,0-0.6,0.1-0.8c0.1-0.4,0.2-0.7,0.4-1.1c0.2-0.4,0.6-0.8,1-1.1C77,8,77.6,7.7,78.3,7.6
			c0.9-0.3,1.9-0.4,2.8-0.4c0.8,0,1.6,0.1,2.5,0.2c0-1.7-1-2.6-3-2.6c-1.4,0-2.8,0.2-4.1,0.7V2.7C77.9,2.3,79.3,2,80.8,2
			c2,0,3.5,0.5,4.6,1.5S87,5.9,87,7.8v3.7c0,0.6-0.1,1.2-0.4,1.8s-0.6,1.1-1.1,1.5c-1,0.9-2.4,1.3-4.4,1.3c-2.1,0-3.6-0.5-4.6-1.4
			c-0.5-0.4-0.8-0.9-1.1-1.5C75.2,12.6,75,12,75,11.4z M78.4,11c0,1.5,0.9,2.2,2.6,2.2l0,0c1.7,0,2.5-0.7,2.5-2.1V9.4
			c-0.7-0.1-1.3-0.2-2-0.2C79.5,9.2,78.4,9.8,78.4,11L78.4,11z"/>
		<path class="st0" d="M88.6,9c0-1.1,0.1-2.1,0.5-3.1c0.2-0.7,0.6-1.4,1.1-2c0.4-0.5,1-0.9,1.6-1.1c0.5-0.3,1-0.4,1.6-0.5
			C93.8,2.1,94.2,2,94.7,2c2,0,3.4,0.4,4.3,1.3c0.4,0.4,0.8,0.9,1,1.4s0.4,1.1,0.3,1.7v9.7c0,0.4,0,0.8-0.1,1.2
			c-0.1,0.5-0.3,0.9-0.5,1.3c-0.3,0.5-0.6,0.9-1.1,1.2c-0.6,0.4-1.2,0.7-1.9,0.9c-0.9,0.2-1.8,0.4-2.8,0.4c-1.4,0-2.7-0.2-4-0.5
			v-2.9c1.2,0.4,2.4,0.6,3.7,0.5c0.6,0,1.3,0,1.9-0.2c0.4-0.1,0.7-0.2,1-0.5c0.1-0.2,0.3-0.4,0.3-0.6c0.1-0.2,0.1-0.5,0.1-0.7v-0.7
			c-0.7,0.1-1.4,0.2-2.1,0.2c-2,0-3.6-0.6-4.7-1.7C89.1,12.8,88.6,11.2,88.6,9z M91.9,9.1c0,1.5,0.3,2.5,0.8,3.1
			c0.6,0.6,1.5,0.9,2.3,0.8c0.7,0,1.4-0.1,2-0.2V6.5c0-1-0.8-1.5-2.3-1.5l0,0c-0.8,0-1.6,0.3-2,0.9C92.2,6.6,91.9,7.6,91.9,9.1z"/>
		<path class="st0" d="M102.3,9.2c-0.1-1.9,0.4-3.7,1.5-5.2c1-1.3,2.6-2,4.8-2c2.1,0,3.6,0.6,4.7,1.9s1.6,3,1.6,4.7
			c0,0.8,0,1.3-0.1,1.7h-9.1c0.1,1.2,0.5,2,1.1,2.4c0.8,0.4,1.6,0.6,2.5,0.6c1.6,0,3.3-0.4,4.8-1v2.6c-1.6,0.8-3.4,1.3-5.3,1.2
			c-0.6,0-1.2,0-1.8-0.1c-0.6-0.1-1.2-0.3-1.7-0.6c-0.6-0.3-1.1-0.7-1.5-1.2c-0.5-0.6-0.8-1.3-1-2C102.4,11.2,102.3,10.2,102.3,9.2z
			 M105.7,8h5.7c-0.1-0.9-0.4-1.7-0.9-2.4c-0.2-0.3-0.5-0.6-0.9-0.7c-0.3-0.2-0.7-0.2-1.1-0.2c-0.7,0-1.5,0.2-2,0.8
			C106,6.2,105.7,7.1,105.7,8L105.7,8z"/>
		<path class="st0" d="M117.2,15.8V-2.3h6.7c0.8,0,1.6,0.1,2.4,0.3c0.7,0.2,1.4,0.4,2.1,0.8c0.6,0.4,1.2,0.9,1.5,1.6
			c0.4,0.8,0.6,1.6,0.5,2.4c0.1,1.5-0.8,2.9-2.2,3.5c2.2,0.8,3.3,2.2,3.3,4.2c0,0.5,0,0.9-0.1,1.4s-0.3,1-0.6,1.4
			c-0.3,0.5-0.7,1-1.2,1.3c-0.6,0.4-1.3,0.7-2,0.9c-1,0.3-2,0.4-3,0.4L117.2,15.8z M120.6,5.1h3.6c1.9,0,2.9-0.7,2.9-2.2
			c0-1.6-1.1-2.4-3.2-2.4h-3.3V5.1z M120.6,12.9h3.9c2.4,0,3.6-0.9,3.6-2.6c0-1.6-1.3-2.4-3.8-2.4h-3.8L120.6,12.9z"/>
		<path class="st0" d="M133.6,9.7V2.3h3.4v7.8c-0.1,0.8,0.2,1.7,0.7,2.3c0.6,0.5,1.4,0.8,2.2,0.7c0.8,0.1,1.6-0.2,2.3-0.7
			c0.5-0.7,0.8-1.5,0.7-2.3V2.3h3.4v7.4c0.1,1.7-0.5,3.4-1.7,4.7c-2.7,2.2-6.6,2.2-9.3,0C134.1,13.1,133.5,11.4,133.6,9.7L133.6,9.7
			z"/>
		<path class="st0" d="M149,15.8V-2.9h3.4v18.7C152.4,15.8,149,15.8,149,15.8z"/>
		<path class="st0" d="M155.3,11.5V-3h3.4v5.2c0.8-0.1,1.5-0.2,2.3-0.2c2.1,0,3.7,0.6,4.8,1.8s1.7,2.9,1.7,5.1
			c0,1.1-0.1,2.2-0.5,3.2c-0.2,0.8-0.6,1.5-1.2,2.1c-0.5,0.5-1,0.9-1.6,1.2c-0.5,0.3-1.1,0.5-1.6,0.6c-0.5,0.1-0.9,0.1-1.4,0.1
			c-2,0-3.5-0.4-4.5-1.3c-0.5-0.4-0.8-0.9-1.1-1.5C155.4,12.7,155.2,12.1,155.3,11.5z M158.6,11.8c0,1,0.8,1.5,2.5,1.5
			c0.9,0.1,1.8-0.3,2.2-1.1c0.4-0.7,0.6-1.9,0.6-3.5c0-1.5-0.3-2.6-0.8-3.2c-0.6-0.6-1.5-1-2.4-0.9c-0.7,0-1.5,0.1-2.2,0.2
			L158.6,11.8z"/>
		<path class="st0" d="M40.5,21.5c0.3-0.7,0.5-1.4,0.5-2.2H30.2c0,0.8,0.2,1.5,0.5,2.2H40.5z"/>
		<path class="st0" d="M31,22.7c0.5,0.8,1.2,1.4,2,1.8c1.6,0.9,3.6,0.9,5.2,0c0.8-0.4,1.5-1.1,2-1.8H31z"/>
		<path class="st0" d="M42.2,1.1H29v7.6h13.2V1.1z M40.6,7.3H30.5v-5h10.2L40.6,7.3L40.6,7.3z"/>
		<path class="st0" d="M41.5-1.4H29.7c-0.2,0-0.4,0.1-0.5,0.2c-0.1,0-0.1,0.1-0.2,0.2c0,0.1,0,0.2,0,0.3V0h13.2v-0.7
			c0-0.3-0.2-0.6-0.4-0.7C41.6-1.4,41.6-1.5,41.5-1.4z"/>
		<path class="st0" d="M42.2,9.8H29v5.6h13.2V9.8z M40.6,14.3H30.4v-1.1h10.2V14.3z M30.4,12.1V11h10.2v1.1H30.4z"/>
		<path class="st0" d="M39.5,3.5h-7.8v2.7h7.8V3.5z"/>
		<path class="st0" d="M35.6-12.3c-2.5,0-5,0.7-7.1,1.9c-2.2,1.2-3.9,3-5.2,5.2c-2.5,4.4-2.4,9.8,0.3,14l0,0
			c0.1,0.2,0.2,0.3,0.3,0.5l3.9,5.9v-16c0-0.2,0-0.5,0.1-0.7s0.2-0.4,0.4-0.6c0.4-0.3,0.8-0.5,1.3-0.5h11.7c0.5,0,1,0.2,1.3,0.5
			c0.2,0.2,0.3,0.4,0.4,0.6c0.1,0.2,0.1,0.5,0.1,0.7v16.1L47.2,9c0-0.1,0.1-0.1,0.1-0.2V8.7c2.7-4.3,2.8-9.7,0.3-14
			c-1.2-2.2-3-4-5.2-5.2C40.5-11.7,38.1-12.3,35.6-12.3L35.6-12.3z"/>
	</g>
</g>
</svg>
