<?xml version="1.0" encoding="utf-8"?>
<!-- Generator: Adobe Illustrator 24.0.0, SVG Export Plug-In . SVG Version: 6.00 Build 0)  -->
<svg version="1.1" id="Layer_1" xmlns="http://www.w3.org/2000/svg" xmlns:xlink="http://www.w3.org/1999/xlink" x="0px" y="0px"
	 viewBox="0 0 172 40" style="enable-background:new 0 0 172 40;" xml:space="preserve">
<style type="text/css">
	.st0{fill:#051441;}
</style>
<g transform="translate(-1002 -946)">
	<g transform="translate(1000.543 877.043)">
		<path class="st0" d="M42,98.9c0.3,0.2,0.6,0.3,0.9,0.3c1.6,0.8,3.5,1.3,5.3,1.3c6.4,0,11.6-5.2,11.6-11.6s-5.1-11.5-11.5-11.6
			c-4.1,0-7.9,4-10.5,6.6L34.7,87l-5.3-5.3c-2.1-2.1-4.4-4.4-8.4-4.4C14.4,77.4,9.2,82.7,9.2,89c0.1,6.4,5.2,11.5,11.5,11.6
			c1.8,0,3.7-0.4,5.3-1.3c1.5-0.9,5.5-3.3,7.8-5.6l0.6-0.6l2.9,2.8C38.7,97.2,40.3,98.2,42,98.9z M40.2,87.6l1.3-1.3
			c1.8-1.8,4.7-4.6,6.8-4.6c3.9,0,7.4,3.7,7.4,7.6c-0.1,4-3.3,7.3-7.4,7.4c-1.6-0.1-3.2-0.6-4.6-1.4c-2.3-1.4-4.3-3.2-6.1-5.2
			L40.2,87.6z M31,90.6c-2,1.8-4.3,3.5-6.7,4.8c-1,0.6-2.2,0.9-3.3,0.9c-4.1,0-7.4-3.3-7.4-7.4s3.3-7.4,7.4-7.4c2.3,0,3.3,1,5.3,3.1
			l5.4,5.3L31,90.6z"/>
		<path class="st0" d="M73.7,96.3c-0.2-0.3-0.4-0.7-0.3-1.2V83.3c0-0.4,0.1-0.9,0.5-1.2c0.3-0.3,0.7-0.5,1.2-0.5
			c0.4,0,0.9,0.1,1.2,0.5c0.3,0.3,0.5,0.7,0.5,1.2V94h5.4c1,0,1.5,0.5,1.5,1.4s-0.5,1.4-1.5,1.4h-7.1C74.5,96.7,74.1,96.5,73.7,96.3
			z"/>
		<path class="st0" d="M85.2,84c-0.2-0.2-0.4-0.5-0.5-0.8c-0.1-0.5,0-0.9,0.3-1.3c0.3-0.3,0.6-0.5,1-0.6s0.8-0.1,1.2,0
			c0.8,0.3,1.2,1.1,1,2c-0.5,1-1.6,1.4-2.6,1C85.5,84.2,85.4,84.1,85.2,84z M85.4,96.4c-0.3-0.3-0.5-0.7-0.5-1.2v-7.7
			c0-0.4,0.1-0.9,0.5-1.2c0.7-0.5,1.6-0.5,2.3,0c0.4,0.3,0.5,0.7,0.5,1.2v7.7c0,0.4-0.1,0.9-0.5,1.2c-0.5,0.4-1.2,0.4-1.8,0.2
			C85.6,96.6,85.5,96.5,85.4,96.4L85.4,96.4z"/>
		<path class="st0" d="M99.9,87.2c0.7,1,1,2.2,0.9,3.3v4.8c0,0.4-0.1,0.9-0.5,1.2c-0.3,0.2-0.7,0.4-1.2,0.3c-0.4,0-0.8-0.1-1.2-0.3
			c-0.3-0.3-0.5-0.7-0.5-1.2v-4.7c0.1-0.5-0.1-1-0.3-1.5c-0.3-0.4-0.8-0.5-1.3-0.5c-0.6,0-1.2,0.2-1.6,0.7s-0.6,1.1-0.6,1.7v4.5
			c0,0.4-0.1,0.9-0.5,1.2c-0.7,0.5-1.6,0.5-2.3,0c-0.4-0.3-0.5-0.7-0.5-1.2v-7.7c0-0.4,0.1-0.8,0.5-1c0.3-0.2,0.7-0.4,1.2-0.3
			c0.4,0,0.8,0.1,1,0.3c0.3,0.3,0.5,0.6,0.5,1v0.3c0-0.1,0.1-0.2,0.1-0.2l0.2-0.2l0.5-0.5c0.8-0.6,1.8-0.9,2.8-0.9
			C98.2,86.3,99.3,86.4,99.9,87.2L99.9,87.2z"/>
		<path class="st0" d="M112.2,94c0.1,0.1,0.1,0.1,0.1,0.2c0.1,0.4,0.1,0.8-0.1,1.2c-0.2,0.5-0.6,0.6-0.9,0.8
			c-0.4,0.2-0.9,0.4-1.4,0.5c-0.6,0.1-1.1,0.2-1.7,0.2c-1,0-2.1-0.2-3-0.7c-0.8-0.4-1.5-1.1-2-1.8c-0.5-0.9-0.7-1.9-0.7-2.9
			s0.2-1.9,0.7-2.8c0.9-1.7,2.6-2.7,4.5-2.6c0.9,0,1.7,0.2,2.5,0.6c0.7,0.4,1.2,1,1.6,1.7c0.4,0.8,0.6,1.7,0.6,2.6
			c0,0.3-0.1,0.5-0.2,0.7c-0.2,0.1-0.4,0.2-0.6,0.2h-5.9c0.1,0.7,0.3,1.3,0.8,1.8c0.5,0.4,1.1,0.6,1.7,0.6c0.4,0,0.8,0,1.2-0.1
			l1-0.3c0.3-0.1,0.7-0.2,1-0.2c0.2,0,0.3,0,0.5,0.1C112.1,93.7,112.1,93.8,112.2,94L112.2,94z M106.4,88.8
			c-0.4,0.5-0.6,1.1-0.7,1.7h4c0-0.6-0.2-1.2-0.6-1.7C108.4,88,107.2,88,106.4,88.8L106.4,88.8L106.4,88.8z"/>
		<path class="st0" d="M115.1,96.4c-0.3-0.3-0.5-0.7-0.5-1.2v-12c0-0.4,0.1-0.9,0.5-1.2c0.3-0.3,0.7-0.5,1.2-0.5
			c0.4,0,0.9,0.1,1.2,0.5c0.3,0.3,0.5,0.7,0.5,1.2V95c0,0.4-0.1,0.8-0.3,1.2c-0.5,0.4-1.2,0.6-1.8,0.5
			C115.5,96.6,115.3,96.5,115.1,96.4L115.1,96.4z"/>
		<path class="st0" d="M122.6,96.1c-0.8-0.4-1.4-1.1-1.8-1.8c-0.5-0.9-0.7-1.9-0.7-2.9s0.2-2,0.7-2.9c0.5-0.8,1.1-1.5,2-2
			s1.9-0.7,2.9-0.7c0.6,0,1.2,0.1,1.7,0.2s1,0.4,1.5,0.7c0.7,0.4,0.9,1.4,0.5,2.1l0,0c-0.1,0.1-0.1,0.2-0.3,0.3
			c-0.2,0.1-0.3,0-0.6,0c-0.5-0.1-0.9-0.3-1.4-0.5c-0.4-0.2-0.7-0.3-1.2-0.3c-0.7,0-1.4,0.3-2,0.8c-0.5,0.6-0.7,1.4-0.6,2.2
			c0,0.8,0.2,1.5,0.6,2.2c0.5,0.5,1.1,0.8,1.8,0.8c0.4,0,0.8-0.1,1.2-0.2c0.3-0.1,0.6-0.2,0.9-0.3c0.4-0.3,1-0.2,1.4,0.1
			c0.2,0.3,0.3,0.6,0.2,0.9c0,0.5-0.2,1-0.7,1.2c-0.5,0.3-1.1,0.5-1.6,0.7c-0.6,0.2-1.2,0.3-1.8,0.2
			C124.3,96.9,123.4,96.6,122.6,96.1L122.6,96.1z"/>
		<path class="st0" d="M133.2,96.1c-0.8-0.4-1.5-1.1-2-1.8c-0.9-1.8-0.9-3.9,0-5.8c0.4-0.8,1.1-1.4,2-1.8c1.8-0.9,3.9-0.9,5.8,0
			c0.8,0.4,1.5,1.1,2,1.8c0.9,1.8,0.9,3.9,0,5.8c-0.4,0.8-1.1,1.4-2,1.8C137.1,97.1,135,97.1,133.2,96.1z M138.4,91.4
			c0.1-0.8-0.2-1.5-0.6-2.2c-0.4-0.5-1.1-0.8-1.7-0.7c-1.5,0-2.3,1-2.3,3s0.8,3,2.3,3C137.7,94.4,138.4,93.4,138.4,91.4L138.4,91.4z
			"/>
		<path class="st0" d="M152.8,87.2c0.7,1,1,2.2,0.9,3.3v4.8c0,0.4-0.1,0.9-0.5,1.2c-0.3,0.2-0.7,0.4-1.2,0.3c-0.4,0-0.8-0.1-1.2-0.3
			c-0.3-0.3-0.5-0.7-0.5-1.2v-4.7c0.1-0.5-0.1-1-0.3-1.5c-0.3-0.4-0.8-0.5-1.3-0.5c-0.6,0-1.2,0.2-1.6,0.7c-0.4,0.5-0.6,1.1-0.6,1.7
			v4.5c0,0.4-0.1,0.9-0.5,1.2c-0.7,0.5-1.6,0.5-2.3,0c-0.4-0.3-0.5-0.7-0.5-1.2v-7.7c0-0.4,0.1-0.8,0.5-1c0.3-0.2,0.7-0.4,1.2-0.3
			c0.4,0,0.8,0.1,1,0.3c0.3,0.3,0.5,0.6,0.5,1v0.3c0-0.2,0.3-0.6,0.6-0.7c0.2-0.2,0.4-0.3,0.7-0.5C149.2,86.3,151.6,85.8,152.8,87.2
			L152.8,87.2z"/>
		<path class="st0" d="M157.8,96.6c-0.1,0-0.3-0.1-0.5-0.1c-0.4-0.1-0.9-0.3-1.3-0.6c-0.2-0.1-0.3-0.3-0.5-0.5
			c-0.1-0.2-0.1-0.5-0.1-0.7c0-0.3,0.1-0.6,0.2-0.8c0.2-0.2,0.4-0.3,0.7-0.3c0.2,0,0.4,0,0.6,0.1c0.2,0.1,0.3,0.1,0.6,0.2
			c0.4,0.2,0.7,0.4,1.2,0.5s0.9,0.1,1.4,0.1c0.4,0,0.8-0.1,1.2-0.2c0.2-0.1,0.4-0.3,0.5-0.6c0-0.2-0.1-0.3-0.2-0.5
			c-0.2-0.2-0.4-0.3-0.7-0.3c-0.5-0.2-1-0.3-1.5-0.3c-1-0.1-1.9-0.5-2.8-1c-0.6-0.5-0.9-1.2-0.8-2c0-1.2,0.8-2.3,2-2.8
			c0.6-0.3,1.4-0.5,2.1-0.5c0.9-0.1,1.8,0,2.6,0.3c0.8,0.2,1.7,0.8,1.7,1.7c0,0.3-0.1,0.6-0.2,0.8c-0.2,0.2-0.4,0.3-0.7,0.3
			c-0.7,0-1.3-0.5-2-0.7s-1.5-0.2-2.2,0c-0.2,0.1-0.5,0.2-0.5,0.5c-0.1,0.2,0,0.5,0.2,0.6l0,0c0.2,0.2,0.6,0.2,0.9,0.3
			s0.7,0.1,1,0.2c0.7,0.2,1.5,0.4,2.2,0.7c0.5,0.2,0.9,0.6,1.2,1c0.2,0.5,0.4,1,0.3,1.5c0,1-0.5,1.9-1.3,2.4
			c-0.6,0.5-1.4,0.7-2.2,0.8C160,97,158.9,96.9,157.8,96.6L157.8,96.6z"/>
	</g>
</g>
</svg>
